<svg height="512pt" viewBox="0 0 512 512" width="512pt" xmlns="http://www.w3.org/2000/svg"><path d="m114 129.046875h14.78125v-25.238281h23.613281v-11.988282h-23.613281v-13.789062h28.660156v-12.976562h-43.441406zm0 0"/><path d="m164.921875 65.054688h14.78125v63.992187h-14.78125zm0 0"/><path d="m233.332031 102.636719-29.835937-37.582031h-11.535156v63.992187h14.78125v-36.59375l29.472656 36.59375h11.898437v-63.992187h-14.78125zm0 0"/><path d="m260.371094 65.054688h14.78125v63.992187h-14.78125zm0 0"/><path d="m328.867188 97.273438c-1.742188-1.46875-3.84375-2.703126-6.308594-3.695313-2.464844-.988281-5.226563-1.90625-8.289063-2.746094-2.164062-.601562-4.074219-1.140625-5.726562-1.621093-1.652344-.484376-3.035157-1.007813-4.144531-1.578126-1.113282-.570312-1.96875-1.21875-2.570313-1.941406-.601563-.71875-.898437-1.621094-.898437-2.703125 0-1.742187.675781-3.0625 2.023437-3.964843 1.355469-.902344 3.292969-1.351563 5.816406-1.351563 1.921875 0 3.84375.269531 5.765625.808594 1.925782.542969 3.699219 1.171875 5.320313 1.894531 1.621093.722656 2.972656 1.414062 4.054687 2.074219 1.082032.660156 1.742188 1.109375 1.984375 1.351562l6.398438-12.257812c-1.382813-.84375-2.945313-1.683594-4.6875-2.523438-1.742188-.84375-3.589844-1.59375-5.542969-2.253906s-4.011719-1.203125-6.175781-1.621094c-2.160157-.421875-4.382813-.632812-6.667969-.632812-3.1875 0-6.203125.449219-9.058594 1.351562-2.855468.902344-5.363281 2.238281-7.527344 4.011719-2.160156 1.773438-3.875 3.953125-5.136718 6.535156-1.261719 2.582032-1.890625 5.558594-1.890625 8.921875 0 2.402344.34375 4.507813 1.035156 6.308594.691406 1.804687 1.757813 3.394531 3.199219 4.777344 1.445312 1.382812 3.246094 2.601562 5.410156 3.648437 2.160156 1.054688 4.714844 2.03125 7.660156 2.929688 2.222656.664062 4.265625 1.265625 6.128906 1.804687 1.863282.539063 3.484376 1.125 4.867188 1.757813 1.382812.628906 2.460938 1.335937 3.246094 2.117187.78125.78125 1.171875 1.773438 1.171875 2.972657 0 3.1875-2.613281 4.777343-7.84375 4.777343-2.464844 0-4.894531-.328125-7.300781-.992187-2.402344-.660156-4.566407-1.410156-6.488282-2.25-1.925781-.84375-3.546875-1.683594-4.867187-2.527344-1.320313-.839844-2.132813-1.410156-2.433594-1.710938l-6.488281 12.890626c1.863281 1.261718 3.90625 2.375 6.128906 3.332031 2.222656.964843 4.507812 1.789062 6.851562 2.480469 2.339844.691406 4.730469 1.214843 7.164063 1.578124 2.433594.359376 4.820313.539063 7.164063.539063 3.066406 0 6.054687-.34375 8.96875-1.035156 2.914062-.691407 5.484374-1.804688 7.707031-3.335938 2.222656-1.53125 4.011719-3.542969 5.363281-6.039062 1.351562-2.492188 2.027344-5.542969 2.027344-9.148438 0-2.941406-.464844-5.46875-1.394532-7.570312-.933593-2.101563-2.269531-3.890625-4.015624-5.363281zm0 0"/><path d="m383.21875 89.839844h-25.507812v-24.785156h-14.78125v63.992187h14.78125v-26.230469h25.507812v26.230469h14.785156v-63.992187h-14.785156zm0 0"/><path d="m512 191v-191h-512v191h30v193.578125c-17.460938 6.195313-30 22.867187-30 42.421875v85h90v-85c0-19.554688-12.539062-36.226562-30-42.421875v-193.578125h392v193.578125c-17.460938 6.195313-30 22.867187-30 42.421875v85h90v-85c0-19.554688-12.539062-36.226562-30-42.421875v-193.578125zm-452 291h-30v-55c0-8.269531 6.730469-15 15-15s15 6.730469 15 15zm422 0h-30v-55c0-8.269531 6.730469-15 15-15s15 6.730469 15 15zm-452-452h452v131h-452zm0 0"/></svg>