<?xml version="1.0" standalone="no"?>
<!DOCTYPE svg PUBLIC "-//W3C//DTD SVG 20010904//EN"
 "http://www.w3.org/TR/2001/REC-SVG-20010904/DTD/svg10.dtd">
<svg version="1.0" xmlns="http://www.w3.org/2000/svg"
 width="1280.000000pt" height="640.000000pt" viewBox="0 0 1280.000000 640.000000"
 preserveAspectRatio="xMidYMid meet">
<g transform="translate(0.000000,640.000000) scale(0.100000,-0.100000)"
fill="#000000" stroke="none">
<path d="M8944 5713 c-193 -207 -1198 -1323 -2238 -2483 -175 -195 -324 -356
-331 -358 -6 -2 -54 46 -106 105 -595 681 -2337 2656 -2451 2778 l-55 59 -41
-18 c-54 -24 -102 -70 -102 -97 0 -21 -2 -21 -87 -15 -321 22 -482 17 -608
-19 l-50 -15 50 5 c292 28 444 30 577 5 91 -17 165 -61 255 -152 121 -124 304
-341 301 -358 -4 -19 -49 -19 -173 0 -161 23 -426 1 -600 -51 l-74 -22 99
-106 c205 -221 329 -378 316 -400 -4 -5 -64 -48 -135 -95 -107 -71 -149 -107
-252 -215 -68 -72 -131 -131 -139 -131 -8 0 -97 93 -197 207 -207 237 -237
268 -252 258 -22 -13 -86 -123 -201 -345 -139 -269 -140 -270 -162 -270 -29 0
-370 391 -404 464 -22 46 -19 56 83 261 117 234 224 415 244 415 18 0 128
-110 286 -288 l154 -172 127 128 c168 169 333 292 393 292 11 0 19 3 19 8 0 4
-30 41 -66 82 -123 139 -315 372 -334 403 -11 17 -17 34 -14 39 10 16 -18 8
-93 -27 -184 -85 -363 -238 -479 -410 -97 -143 -161 -261 -374 -683 -283 -566
-403 -757 -575 -920 -149 -142 -293 -220 -495 -268 -102 -24 -408 -30 -555
-10 -131 18 -185 20 -185 9 0 -14 541 -640 1641 -1899 l586 -671 139 -27 c291
-56 433 -45 774 62 81 25 83 27 50 32 -49 9 -67 21 -127 82 -65 66 -298 345
-314 374 -17 32 -6 50 45 72 106 47 257 172 387 320 44 51 87 92 94 90 19 -5
434 -481 435 -499 0 -21 -270 -296 -340 -346 -30 -22 -75 -52 -100 -67 -50
-30 -21 -26 45 6 53 27 212 156 272 222 143 157 226 296 473 791 115 231 245
480 289 553 242 405 470 596 805 675 78 18 123 21 306 21 185 1 232 -2 335
-23 66 -12 126 -26 133 -30 29 -16 282 -317 280 -332 -2 -9 -228 -268 -503
-575 -1070 -1195 -1249 -1399 -1242 -1418 8 -20 124 -88 144 -84 16 3 844 920
1496 1655 147 166 238 261 249 260 9 -1 286 -310 616 -687 922 -1054 1115
-1272 1137 -1286 17 -11 27 -10 63 8 24 12 57 34 74 48 l30 26 -193 224 c-106
124 -505 582 -886 1018 -382 436 -696 799 -699 807 -8 21 320 382 354 389 108
24 315 46 429 46 286 0 528 -73 712 -214 97 -75 226 -220 315 -354 110 -167
199 -331 349 -647 296 -622 399 -785 612 -965 118 -99 165 -126 317 -175 335
-110 477 -125 741 -81 87 15 165 30 173 33 27 10 2251 2511 2263 2545 4 12
-60 8 -244 -12 -184 -20 -403 -4 -565 41 -151 41 -307 136 -434 263 -154 154
-283 359 -478 756 -72 146 -168 342 -214 435 -97 199 -203 381 -280 482 -110
144 -266 271 -431 349 -84 40 -93 41 -93 14 0 -19 -148 -201 -334 -412 l-86
-96 37 -13 c92 -30 257 -160 404 -319 51 -55 96 -99 100 -98 3 2 72 75 151
163 169 186 270 285 292 285 20 0 97 -130 216 -365 119 -236 129 -264 108
-308 -36 -74 -390 -470 -416 -465 -10 2 -68 103 -150 263 -131 257 -194 365
-211 365 -10 0 -142 -142 -325 -348 -59 -67 -113 -122 -118 -122 -6 0 -78 69
-162 153 -124 127 -170 166 -258 222 -60 37 -108 73 -108 80 0 30 152 212 339
407 l83 88 -28 11 c-113 44 -347 79 -520 79 -71 0 -104 -4 -239 -25 -22 -3
-46 -1 -54 4 -20 13 -7 31 132 188 225 257 299 312 442 333 125 17 330 12 560
-15 84 -10 15 13 -89 30 -154 24 -254 27 -421 12 -88 -8 -165 -12 -172 -10 -7
3 -15 15 -19 26 -3 12 -16 33 -28 45 -20 23 -86 62 -104 62 -5 0 -58 -53 -118
-117z m-23 -1043 c106 -16 186 -40 205 -61 15 -17 16 -20 0 -44 -20 -31 -104
-128 -261 -305 -66 -74 -126 -142 -133 -151 -11 -14 1 -24 91 -77 129 -77 219
-152 325 -272 45 -52 89 -96 96 -98 8 -2 105 97 217 220 111 123 209 227 217
232 32 19 112 -104 262 -403 48 -97 95 -185 104 -196 15 -19 18 -17 103 70 49
50 146 152 216 227 85 91 133 135 142 131 9 -3 65 -105 126 -227 120 -239 177
-341 212 -381 l22 -26 213 235 c129 143 218 233 226 230 7 -3 64 -61 125 -130
120 -133 176 -179 321 -265 49 -30 90 -60 90 -67 0 -8 -67 -89 -148 -180 -188
-212 -262 -300 -262 -312 0 -22 203 -63 378 -76 53 -4 164 -1 262 6 198 16
208 13 167 -47 -42 -60 -285 -321 -364 -389 -83 -73 -105 -80 -268 -94 -195
-17 -498 9 -592 50 -75 33 -66 50 169 321 138 160 178 211 178 226 0 5 -20 19
-45 31 -83 40 -199 135 -332 270 -72 74 -136 133 -141 131 -5 -2 -88 -92 -185
-199 -227 -254 -252 -277 -271 -260 -24 19 -69 101 -206 369 -86 170 -130 246
-141 246 -9 0 -98 -88 -196 -195 -225 -244 -229 -247 -251 -234 -9 6 -82 138
-162 293 -80 155 -155 294 -167 309 l-22 27 -38 -40 c-21 -22 -116 -129 -212
-238 -97 -109 -182 -197 -191 -197 -10 0 -63 50 -120 110 -123 133 -243 232
-328 271 -35 16 -65 36 -69 44 -16 42 30 104 271 370 79 88 142 163 138 166
-9 8 -203 46 -302 59 -102 13 -250 12 -403 -1 -93 -9 -131 -9 -139 -1 -13 13
43 81 280 343 l147 164 55 8 c144 21 217 26 361 22 86 -3 189 -9 230 -15z
m-4463 -30 l74 -13 103 -116 c196 -221 325 -375 325 -390 0 -11 -17 -12 -107
-5 -202 17 -454 10 -593 -16 -69 -12 -133 -25 -142 -29 -13 -5 7 -33 99 -136
166 -187 266 -308 288 -349 25 -47 16 -62 -63 -102 -95 -48 -167 -106 -309
-251 -97 -100 -135 -133 -146 -126 -13 7 -95 98 -336 377 -88 102 -95 108
-108 90 -29 -38 -92 -153 -207 -374 -64 -124 -123 -231 -130 -238 -19 -19 -48
8 -241 222 -89 100 -172 190 -185 201 l-22 20 -19 -24 c-11 -13 -67 -117 -124
-230 -129 -253 -195 -365 -220 -370 -12 -2 -31 11 -54 37 -293 332 -383 432
-390 432 -5 0 -71 -62 -148 -138 -138 -139 -250 -228 -330 -263 -24 -10 -43
-23 -43 -28 0 -10 57 -83 175 -221 144 -168 215 -264 215 -288 0 -17 -9 -27
-37 -39 -142 -59 -643 -71 -771 -17 -50 20 -115 80 -264 241 -152 165 -208
234 -208 257 0 20 52 21 236 4 97 -8 162 -8 255 0 148 13 291 39 316 57 17 12
16 15 -8 49 -14 20 -104 127 -200 237 -96 111 -175 209 -177 218 -2 11 28 34
99 75 136 79 208 139 329 274 56 61 107 112 114 112 6 0 106 -106 221 -236
l209 -237 27 32 c32 39 142 236 244 439 42 84 83 156 91 159 20 7 26 1 219
-212 95 -104 184 -201 199 -215 27 -25 28 -25 43 -5 8 11 49 88 90 170 109
217 231 418 261 430 16 6 18 4 250 -257 96 -108 181 -199 190 -203 10 -4 30
11 60 47 128 150 251 252 409 339 35 19 63 37 63 42 0 4 -35 47 -78 95 -206
232 -332 384 -332 402 0 32 59 54 200 76 104 16 480 12 588 -6z m3595 -999
c113 -26 177 -54 177 -78 0 -24 -406 -477 -431 -481 -11 -2 -60 9 -109 23 -50
15 -130 33 -178 41 -97 16 -346 18 -462 4 -119 -14 -119 -5 -3 131 152 177
321 347 356 358 110 36 499 37 650 2z m-2743 -22 c41 -6 87 -17 101 -25 39
-20 275 -275 399 -432 46 -58 36 -66 -76 -51 -112 14 -367 14 -459 0 -38 -6
-119 -25 -179 -42 -105 -30 -109 -30 -126 -12 -9 10 -97 110 -195 223 -98 113
-187 215 -198 227 -17 19 -18 25 -7 38 26 31 148 66 296 85 87 11 345 5 444
-11z m3550 -611 c34 -51 111 -193 173 -315 62 -123 115 -223 118 -223 3 0 101
106 218 236 117 129 219 234 226 232 7 -2 68 -113 135 -248 122 -245 207 -400
221 -400 4 0 69 71 145 158 225 256 286 316 312 308 12 -4 53 -44 92 -89 106
-125 249 -247 365 -312 43 -24 65 -42 65 -54 0 -10 -57 -83 -126 -162 -70 -79
-162 -184 -205 -234 -44 -49 -78 -94 -76 -100 6 -16 201 -62 318 -74 101 -11
186 -8 447 15 61 6 72 4 72 -9 0 -16 -415 -491 -438 -501 -6 -3 -81 -13 -165
-22 -213 -23 -434 -15 -575 20 -115 29 -142 40 -142 60 0 7 77 101 171 207
205 232 239 273 239 286 0 6 -44 39 -97 74 -130 85 -216 160 -314 274 -45 52
-87 95 -93 95 -6 0 -105 -102 -219 -226 -163 -176 -213 -225 -230 -222 -37 5
-94 96 -228 367 l-131 265 -52 -55 c-28 -30 -116 -125 -195 -212 -80 -87 -153
-163 -163 -168 -14 -7 -24 -7 -35 2 -8 7 -55 93 -103 190 -49 97 -123 236
-164 308 -42 72 -76 137 -76 144 0 23 410 477 430 477 13 0 39 -30 80 -92z
m-4623 -167 c112 -129 203 -239 203 -244 0 -6 -35 -69 -77 -141 -43 -72 -120
-214 -173 -316 -65 -127 -101 -186 -114 -188 -21 -4 -64 39 -278 279 -78 87
-144 159 -147 159 -3 0 -61 -109 -128 -243 -132 -262 -189 -359 -223 -377 -28
-15 -25 -18 -250 230 -97 107 -184 201 -193 209 -15 12 -32 -2 -155 -126 -110
-112 -160 -155 -254 -216 -65 -42 -118 -80 -118 -83 0 -12 41 -62 229 -279
100 -115 180 -216 179 -224 -4 -18 -56 -36 -183 -63 -78 -17 -134 -21 -255
-21 -146 0 -417 25 -445 41 -24 13 -435 488 -435 502 0 17 15 17 140 4 177
-19 386 -19 493 0 122 22 207 47 207 60 0 7 -84 108 -186 226 -102 118 -194
227 -204 241 -25 34 -17 44 75 97 103 60 219 157 330 277 69 74 104 105 120
105 25 0 80 -57 300 -315 71 -82 133 -150 139 -150 18 0 104 151 230 399 67
132 126 241 132 243 7 2 107 -104 224 -237 116 -132 216 -237 221 -234 5 3 48
82 94 175 92 182 198 368 241 418 15 18 34 31 42 29 9 -2 108 -109 219 -237z
m5326 -1158 c134 -159 273 -281 389 -339 42 -21 68 -40 68 -51 0 -19 -31 -59
-196 -249 -185 -213 -233 -249 -299 -224 -90 34 -300 217 -439 382 -48 57 -48
57 -29 81 47 59 426 477 433 477 5 0 38 -35 73 -77z"/>
</g>
</svg>
